# xmcd
#
# Track frame offsets: 
#        150
#        11879
#        27586
#        40453
#        59932
#        79981
#        94688
#        111762
#        125265
#        139158
#        152768
#        165740
#        184014
#        196025
#        213211
#        225132
#        238013
#        258544
#        273252
#        288142
#
# Disc length: 4076 seconds
#
# Revision: 0
# Processed by: cddbd v1.5.2PL0 Copyright (c) Steve Scherf et al.
# Submitted via: ExactAudioCopy v1.1
#
DISCID=180fea14
DTITLE=Daniel O'Donnell - Daniel O'Donnell The Ultimate Collection - D
DTITLE=isc 1
DYEAR=2011
DGENRE=Country
TTITLE0=Welcome To My World
TTITLE1=Love Is A Beautiful Song
TTITLE2=I Just Want To Dance With You
TTITLE3=My Donegal Shore
TTITLE4=You Raise Me UP
TTITLE5=Footsteps
TTITLE6=I Need You
TTITLE7=Tipperary Girl
TTITLE8=Four Country Roads
TTITLE9=Heaven With You
TTITLE10=Beyond The Rainbow's End
TTITLE11=Danny Boy
TTITLE12=Teenager In Love
TTITLE13=I'd Live My Life Over With You
TTITLE14=Stand Beside Me
TTITLE15=Still You
TTITLE16=Red Is The Rose
TTITLE17=Crush On You
TTITLE18=Tennessee Waltz
TTITLE19=Erin Tennessee (Live)
EXTD=
EXTT0=
EXTT1=
EXTT2=
EXTT3=
EXTT4=
EXTT5=
EXTT6=
EXTT7=
EXTT8=
EXTT9=
EXTT10=
EXTT11=
EXTT12=
EXTT13=
EXTT14=
EXTT15=
EXTT16=
EXTT17=
EXTT18=
EXTT19=
PLAYORDER=
